<svg width="99" height="39" viewBox="0 0 99 39" fill="none" xmlns="http://www.w3.org/2000/svg">
<path d="M97.8973 32.3113H91.1828L98.1441 10.7855C98.2022 10.6613 98.2258 10.5238 98.2127 10.3873C98.1996 10.2508 98.1501 10.1203 98.0695 10.0094C97.9888 9.89853 97.8799 9.81129 97.7541 9.75676C97.6283 9.70224 97.4902 9.68243 97.3541 9.6994H82.8885C82.7622 9.68682 82.6347 9.70243 82.5152 9.74512C82.3956 9.7878 82.2871 9.8565 82.1973 9.94624C82.1076 10.036 82.0389 10.1445 81.9962 10.2641C81.9535 10.3836 81.9378 10.5111 81.9504 10.6374V14.2909C81.9378 14.4172 81.9535 14.5447 81.9962 14.6642C82.0389 14.7838 82.1076 14.8923 82.1973 14.9821C82.2871 15.0718 82.3956 15.1405 82.5152 15.1832C82.6347 15.2259 82.7622 15.2415 82.8885 15.2289H88.813L81.803 36.7547C81.6051 37.3965 81.9507 37.8409 82.6419 37.8409H97.8976C98.0239 37.8535 98.1514 37.8379 98.271 37.7952C98.3905 37.7525 98.4991 37.6838 98.5888 37.5941C98.6786 37.5043 98.7473 37.3957 98.79 37.2762C98.8326 37.1566 98.8482 37.0291 98.8356 36.9028V33.2494C98.8482 33.1231 98.8326 32.9955 98.7899 32.8759C98.7473 32.7564 98.6785 32.6478 98.5887 32.558C98.499 32.4682 98.3904 32.3995 98.2708 32.3569C98.1512 32.3142 98.0236 32.2986 97.8973 32.3113Z" fill="#F85606"/>
<path d="M79.7789 33.4468V10.6374C79.7915 10.5111 79.7758 10.3836 79.7331 10.2641C79.6904 10.1445 79.6217 10.036 79.532 9.94624C79.4422 9.85649 79.3337 9.7878 79.2141 9.74511C79.0946 9.70242 78.9671 9.68681 78.8408 9.6994H73.2619C73.1323 9.68169 73.0005 9.69334 72.876 9.73348C72.7516 9.77361 72.6377 9.84121 72.5429 9.93127C72.4481 10.0213 72.3748 10.1315 72.3283 10.2538C72.2819 10.376 72.2635 10.5071 72.2745 10.6374V12.6123H71.7314C71.2377 10.5387 69.7565 9.3538 67.0414 9.3538C62.9436 9.3538 60.6232 12.0198 60.6232 20.8572V26.7324C60.6232 35.5698 62.8943 38.1864 67.0414 38.1864C70.0037 38.1864 71.6329 36.8041 72.0773 34.2364H72.6697L73.3116 37.0011C73.3529 37.2431 73.4809 37.4618 73.6717 37.6163C73.8625 37.7708 74.103 37.8505 74.3483 37.8405H79.5323C80.2235 37.8405 80.4704 37.3961 80.3716 36.8037L79.7789 33.4468ZM72.2745 28.2135C72.2745 31.867 71.682 32.6569 70.2502 32.6569C68.8679 32.6569 68.2754 31.8669 68.2754 28.2629V18.9811C68.2754 15.3277 68.9172 14.5377 70.2502 14.5377C71.682 14.5377 72.2745 15.3277 72.2745 19.0305V28.2135Z" fill="#F85606"/>
<path d="M58.2041 9.7487L52.8226 13.6H52.4771V10.6374C52.4897 10.5111 52.474 10.3836 52.4313 10.2641C52.3886 10.1445 52.3199 10.036 52.2302 9.94624C52.1404 9.85649 52.0319 9.7878 51.9123 9.74511C51.7928 9.70242 51.6653 9.68681 51.539 9.6994H46.2563C46.13 9.68681 46.0025 9.70242 45.883 9.74511C45.7634 9.7878 45.6549 9.85649 45.5651 9.94624C45.4754 10.036 45.4067 10.1445 45.364 10.2641C45.3213 10.3836 45.3056 10.5111 45.3182 10.6374V36.9028C45.3056 37.0291 45.3212 37.1566 45.3639 37.2762C45.4066 37.3957 45.4753 37.5043 45.5651 37.594C45.6548 37.6838 45.7634 37.7525 45.8829 37.7952C46.0025 37.8379 46.13 37.8535 46.2563 37.8409H51.8846C52.0118 37.8577 52.1411 37.8451 52.2626 37.8039C52.3841 37.7627 52.4944 37.6941 52.5851 37.6033C52.6758 37.5126 52.7444 37.4023 52.7856 37.2808C52.8268 37.1593 52.8394 37.03 52.8226 36.9028V21.1534L58.7472 16.9075C58.9379 16.7879 59.0933 16.6197 59.1974 16.4201C59.3015 16.2205 59.3506 15.9968 59.3396 15.772V10.3412C59.34 9.6006 58.7965 9.3044 58.2041 9.7487Z" fill="#F85606"/>
<path d="M42.5538 33.4468V10.6374C42.5664 10.5111 42.5508 10.3836 42.5081 10.2641C42.4654 10.1445 42.3967 10.036 42.307 9.94624C42.2172 9.85649 42.1087 9.7878 41.9891 9.74511C41.8696 9.70242 41.7421 9.68681 41.6158 9.6994H36.0369C35.9073 9.6817 35.7755 9.69335 35.651 9.73348C35.5266 9.77361 35.4127 9.84121 35.3179 9.93126C35.2231 10.0213 35.1497 10.1315 35.1033 10.2538C35.0568 10.376 35.0384 10.5071 35.0494 10.6374V12.6123H34.5064C34.0127 10.5387 32.5315 9.3538 29.8164 9.3538C25.7186 9.3538 23.3982 12.0198 23.3982 20.8572V26.7324C23.3982 35.5698 25.6692 38.1864 29.8164 38.1864C32.7787 38.1864 34.4079 36.8041 34.8523 34.2364H35.4447L36.0865 37.0011C36.1278 37.2431 36.2558 37.4618 36.4466 37.6163C36.6374 37.7708 36.878 37.8505 37.1233 37.8405H42.3073C42.9985 37.8405 43.2453 37.3961 43.1466 36.8037L42.5538 33.4468ZM35.0494 28.2135C35.0494 31.867 34.457 32.6569 33.0252 32.6569C31.6429 32.6569 31.0504 31.8669 31.0504 28.2629V18.9811C31.0504 15.3277 31.6922 14.5377 33.0252 14.5377C34.457 14.5377 35.0494 15.3277 35.0494 19.0305V28.2135Z" fill="#F85606"/>
<path d="M9.3275 0.318896H1.2307C1.10354 0.302052 0.974198 0.314711 0.852713 0.355892C0.731228 0.397073 0.620859 0.465672 0.53015 0.556371C0.439441 0.64707 0.370829 0.757435 0.329634 0.878916C0.28844 1.0004 0.275767 1.12973 0.292597 1.2569V36.9028C0.275771 37.03 0.288448 37.1593 0.329642 37.2808C0.370836 37.4023 0.439444 37.5126 0.53015 37.6033C0.620856 37.6941 0.731226 37.7627 0.852709 37.8039C0.974193 37.845 1.10353 37.8577 1.2307 37.8409H9.3275C17.375 37.8409 21.0775 34.1874 21.0775 21.5484V16.6113C21.0778 3.6267 17.1282 0.318896 9.3275 0.318896ZM13.1785 25.0044C13.1785 30.5344 12.1417 31.6201 9.525 31.6201H8.0439V6.3915H9.525C12.1417 6.3915 13.1785 7.3296 13.1785 13.0072V25.0044Z" fill="#F85606"/>
</svg>
