<svg width="74" height="127" viewBox="0 0 74 127" fill="none" xmlns="http://www.w3.org/2000/svg">
<path d="M72.0181 18.8246L40.3197 0.512538C38.4654 -0.603021 36.9828 0.140609 36.9828 2.37218V41.4124L68.496 59.6315C70.3503 60.7468 70.3503 62.421 68.496 63.5354L40.3197 79.8025C38.4654 80.9178 36.9828 80.1742 36.9828 77.9428V41.4124L1.94643 61.6764C1.32643 61.9762 0.80988 62.4549 0.463047 63.0511C0.116215 63.6473 -0.0450784 64.3339 -0.00013709 65.0226V103.878C-0.0451402 104.566 0.116122 105.253 0.462956 105.849C0.809791 106.446 1.32638 106.924 1.94643 107.224L35.0358 126.373C35.6032 126.781 36.2839 127 36.9821 127C37.6804 127 38.361 126.781 38.9285 126.373L72.0181 107.224C72.638 106.924 73.1545 106.446 73.5013 105.849C73.8481 105.253 74.0094 104.567 73.9644 103.878V22.1708C74.0094 21.482 73.8482 20.7955 73.5014 20.1993C73.1546 19.603 72.638 19.1243 72.0181 18.8246Z" fill="#F85606"/>
</svg>
