<svg width="28" height="27" xmlns="http://www.w3.org/2000/svg"><g fill="none"><path d="M8.448 14.152c-3.518-.683-6.82 1.017-7.36 3.788-.189.969-.021 1.975.485 2.916-.363 1.192-.876 2.03-1.449 2.363a.172.172 0 0 0-.082.207.221.221 0 0 0 .2.144c.089.006 2.14.142 3.729-.308.765.45 1.612.766 2.519.942 3.519.682 6.82-1.017 7.36-3.789.54-2.771-1.883-5.581-5.402-6.263z" fill="#1ACCFF"/><path d="M15.54 0C22.41 0 28 5.053 28 11.265c0 2.17-.684 4.274-1.98 6.093.245 2.727.903 4.751 1.858 5.71a.418.418 0 0 1-.351.709c-.168-.024-4.076-.589-6.902-2.228-1.605.65-3.314.98-5.084.98-6.87 0-12.46-5.053-12.46-11.264C3.081 5.053 8.671 0 15.541 0zm5.815 12.933c.916 0 1.661-.748 1.661-1.668 0-.92-.745-1.67-1.661-1.67s-1.661.75-1.661 1.67c0 .92.745 1.668 1.66 1.668zm-5.814 0c.916 0 1.66-.748 1.66-1.668 0-.92-.744-1.67-1.66-1.67-.917 0-1.662.75-1.662 1.67 0 .92.745 1.668 1.662 1.668zm-5.815 0c.916 0 1.661-.748 1.661-1.668 0-.92-.745-1.67-1.66-1.67-.917 0-1.662.75-1.662 1.67 0 .92.745 1.668 1.661 1.668z" fill="#597DFF"/><path d="M3.745 14.704c1.318-.65 2.985-.886 4.703-.552 3.519.682 5.942 3.492 5.402 6.263a4.186 4.186 0 0 1-.892 1.87c-4.376-.837-7.91-3.756-9.273-7.551z" fill="#2620FD"/></g></svg>