<svg width="224" height="95" viewBox="0 0 224 95" fill="none" xmlns="http://www.w3.org/2000/svg">
<path d="M89.3533 29.3766H83.2069L89.5792 9.61527C89.6323 9.50123 89.654 9.37499 89.642 9.24969C89.63 9.12438 89.5847 9.0046 89.5109 8.9028C89.437 8.80101 89.3374 8.72091 89.2222 8.67086C89.107 8.62081 88.9806 8.60262 88.856 8.6182H75.6143C75.4987 8.60664 75.382 8.62098 75.2726 8.66017C75.1631 8.69935 75.0638 8.76242 74.9816 8.84481C74.8995 8.92719 74.8366 9.02685 74.7975 9.13657C74.7584 9.2463 74.7441 9.36336 74.7556 9.47931V12.8333C74.7441 12.9493 74.7584 13.0663 74.7975 13.1761C74.8366 13.2858 74.8995 13.3854 74.9816 13.4678C75.0638 13.5502 75.1631 13.6133 75.2726 13.6525C75.382 13.6917 75.4987 13.706 75.6143 13.6944H81.0376L74.6207 33.4557C74.4395 34.0449 74.7559 34.4529 75.3886 34.4529H89.3535C89.4692 34.4645 89.5859 34.4501 89.6953 34.411C89.8048 34.3718 89.9041 34.3087 89.9863 34.2263C90.0685 34.1439 90.1313 34.0442 90.1704 33.9345C90.2095 33.8247 90.2237 33.7076 90.2122 33.5917V30.2378C90.2237 30.1218 90.2095 30.0047 90.1704 29.8949C90.1313 29.7851 90.0684 29.6855 89.9862 29.603C89.904 29.5206 89.8046 29.4576 89.6951 29.4184C89.5857 29.3792 89.4689 29.3649 89.3533 29.3766Z" fill="#F85606"/>
<path d="M72.7678 30.419V9.47933C72.7793 9.36338 72.765 9.24632 72.7259 9.13659C72.6868 9.02687 72.6239 8.92721 72.5418 8.84483C72.4596 8.76244 72.3602 8.69937 72.2508 8.66019C72.1414 8.621 72.0247 8.60666 71.909 8.61822H66.8022C66.6836 8.60197 66.5628 8.61266 66.4489 8.6495C66.335 8.68635 66.2308 8.7484 66.144 8.83108C66.0572 8.91376 65.9901 9.01494 65.9476 9.12715C65.905 9.23936 65.8882 9.35972 65.8983 9.47933V11.2923H65.4012C64.9492 9.38872 63.5933 8.30095 61.108 8.30095C57.3569 8.30095 55.2328 10.7484 55.2328 18.8614V24.255C55.2328 32.368 57.3117 34.7701 61.108 34.7701C63.8196 34.7701 65.311 33.5011 65.7178 31.1439H66.2601L66.8477 33.682C66.8854 33.9041 67.0026 34.1049 67.1773 34.2467C67.3519 34.3885 67.5721 34.4617 67.7966 34.4526H72.542C73.1748 34.4526 73.4008 34.0446 73.3103 33.5007L72.7678 30.419ZM65.8983 25.6147C65.8983 28.9687 65.3559 29.6939 64.0453 29.6939C62.7799 29.6939 62.2376 28.9686 62.2376 25.66V17.1391C62.2376 13.7852 62.8251 13.0599 64.0453 13.0599C65.3559 13.0599 65.8983 13.7852 65.8983 17.1844V25.6147Z" fill="#F85606"/>
<path d="M53.0184 8.66347L48.0922 12.1991H47.7759V9.47932C47.7874 9.36338 47.7731 9.24631 47.734 9.13659C47.6949 9.02686 47.6321 8.9272 47.5499 8.84482C47.4677 8.76243 47.3684 8.69937 47.2589 8.66018C47.1495 8.62099 47.0328 8.60666 46.9172 8.61821H42.0814C41.9658 8.60666 41.8491 8.62099 41.7397 8.66018C41.6303 8.69937 41.5309 8.76243 41.4487 8.84482C41.3666 8.9272 41.3037 9.02686 41.2646 9.13659C41.2255 9.24631 41.2112 9.36338 41.2227 9.47932V33.5917C41.2112 33.7077 41.2255 33.8247 41.2646 33.9345C41.3036 34.0442 41.3665 34.1439 41.4487 34.2263C41.5309 34.3087 41.6302 34.3717 41.7397 34.4109C41.8491 34.4501 41.9658 34.4645 42.0814 34.4529H47.2335C47.35 34.4684 47.4683 34.4567 47.5795 34.4189C47.6907 34.3811 47.7918 34.3181 47.8748 34.2348C47.9578 34.1516 48.0206 34.0502 48.0583 33.9387C48.096 33.8272 48.1076 33.7084 48.0922 33.5917V19.1333L53.5155 15.2355C53.6901 15.1257 53.8323 14.9712 53.9277 14.788C54.023 14.6048 54.0679 14.3994 54.0578 14.193V9.2074C54.0582 8.52751 53.5606 8.25559 53.0184 8.66347Z" fill="#F85606"/>
<path d="M38.6922 30.419V9.47933C38.7037 9.36339 38.6894 9.24633 38.6504 9.1366C38.6113 9.02687 38.5484 8.92722 38.4662 8.84483C38.3841 8.76244 38.2847 8.69937 38.1753 8.66018C38.0659 8.621 37.9492 8.60666 37.8336 8.61822H32.7267C32.6081 8.60197 32.4874 8.61266 32.3734 8.64951C32.2595 8.68635 32.1553 8.74841 32.0685 8.83108C31.9817 8.91376 31.9146 9.01494 31.872 9.12714C31.8295 9.23935 31.8126 9.35971 31.8227 9.47933V11.2923H31.3257C30.8737 9.38872 29.5179 8.30095 27.0325 8.30095C23.2814 8.30095 21.1573 10.7484 21.1573 18.8614V24.255C21.1573 32.368 23.2362 34.7701 27.0325 34.7701C29.7441 34.7701 31.2355 33.5011 31.6423 31.1439H32.1846L32.7721 33.682C32.8099 33.9041 32.927 34.1049 33.1017 34.2468C33.2764 34.3886 33.4966 34.4617 33.7212 34.4526H38.4665C39.0993 34.4526 39.3252 34.0446 39.2348 33.5007L38.6922 30.419ZM31.8227 25.6147C31.8227 28.9687 31.2804 29.6939 29.9698 29.6939C28.7044 29.6939 28.1621 28.9686 28.1621 25.66V17.1391C28.1621 13.7852 28.7496 13.0599 29.9698 13.0599C31.2804 13.0599 31.8227 13.7852 31.8227 17.1844V25.6147Z" fill="#F85606"/>
<path d="M8.2771 0.00664242H0.865345C0.74894 -0.00882079 0.630545 0.00280009 0.519338 0.0406057C0.408132 0.0784113 0.307101 0.141386 0.224066 0.224651C0.141032 0.307915 0.0782247 0.409234 0.0405158 0.520756C0.0028069 0.632279 -0.00879389 0.751011 0.00661251 0.867753V33.5917C-0.00879039 33.7084 0.00281408 33.8272 0.0405228 33.9387C0.0782315 34.0502 0.141035 34.1516 0.224066 34.2348C0.307098 34.3181 0.40813 34.3811 0.519335 34.4189C0.63054 34.4567 0.748935 34.4684 0.865345 34.4529H8.2771C15.6437 34.4529 19.033 31.0989 19.033 19.4959V14.9635C19.0332 3.0433 15.4178 0.00664242 8.2771 0.00664242ZM11.8023 22.6686C11.8023 27.7453 10.8532 28.742 8.45789 28.742H7.1021V5.58146H8.45789C10.8532 5.58146 11.8023 6.44266 11.8023 11.6549V22.6686Z" fill="#F85606"/>
<path d="M17.91 57.89V59.015C17.91 59.315 17.835 59.54 17.685 59.69C17.535 59.84 17.31 59.915 17.01 59.915H11.97C11.67 59.915 11.445 59.84 11.295 59.69C11.145 59.54 11.07 59.315 11.07 59.015V56.09C11.07 55.34 10.935 54.785 10.665 54.425C10.395 54.065 9.99 53.885 9.45 53.885C8.91 53.885 8.505 54.065 8.235 54.425C7.965 54.785 7.83 55.34 7.83 56.09V56.18C7.83 57.11 8.085 57.98 8.595 58.79C9.105 59.57 9.885 60.515 10.935 61.625L13.815 64.64C15.045 65.93 16.08 67.325 16.92 68.825C17.79 70.325 18.225 72.185 18.225 74.405V75.08C18.225 77.69 17.52 79.745 16.11 81.245C14.73 82.715 12.495 83.45 9.405 83.45C6.165 83.45 3.885 82.625 2.565 80.975C1.275 79.295 0.63 76.76 0.63 73.37V71.615C0.63 71.315 0.705 71.09 0.855 70.94C1.005 70.79 1.23 70.715 1.53 70.715H6.66C6.96 70.715 7.185 70.79 7.335 70.94C7.485 71.09 7.56 71.315 7.56 71.615V75.395C7.56 76.235 7.695 76.85 7.965 77.24C8.265 77.63 8.715 77.825 9.315 77.825C9.915 77.825 10.35 77.63 10.62 77.24C10.92 76.85 11.07 76.235 11.07 75.395V75.305C11.07 74.285 10.83 73.325 10.35 72.425C9.9 71.525 9.225 70.61 8.325 69.68L5.22 66.485C3.93 65.195 2.865 63.86 2.025 62.48C1.185 61.07 0.765 59.255 0.765 57.035V56.36C0.765 53.96 1.455 52.025 2.835 50.555C4.215 49.085 6.36 48.35 9.27 48.35C12.24 48.35 14.415 49.115 15.795 50.645C17.205 52.145 17.91 54.56 17.91 57.89ZM38.5573 67.025V69.95C38.5573 70.25 38.4823 70.475 38.3323 70.625C38.1823 70.775 37.9573 70.85 37.6573 70.85H29.2873V74.81C29.2873 76.37 29.3923 77.375 29.6023 77.825C29.8123 78.275 30.1723 78.5 30.6823 78.5C31.1623 78.5 31.5073 78.32 31.7173 77.96C31.9273 77.6 32.0323 76.82 32.0323 75.62V73.46C32.0323 73.16 32.1073 72.935 32.2573 72.785C32.4073 72.635 32.6323 72.56 32.9323 72.56H37.6123C37.9123 72.56 38.1373 72.635 38.2873 72.785C38.4373 72.935 38.5123 73.16 38.5123 73.46V73.64C38.5123 76.88 37.8973 79.325 36.6673 80.975C35.4373 82.595 33.4273 83.405 30.6373 83.405C27.6373 83.405 25.4773 82.49 24.1573 80.66C22.8673 78.83 22.2223 75.905 22.2223 71.885V68.555C22.2223 64.475 22.8673 61.52 24.1573 59.69C25.4773 57.86 27.6373 56.945 30.6373 56.945C33.4573 56.945 35.4823 57.785 36.7123 59.465C37.9423 61.115 38.5573 63.635 38.5573 67.025ZM30.6823 61.85C30.2023 61.85 29.8423 62.045 29.6023 62.435C29.3923 62.825 29.2873 63.695 29.2873 65.045V67.52H32.0323V65.045C32.0323 63.725 31.9273 62.87 31.7173 62.48C31.5073 62.06 31.1623 61.85 30.6823 61.85ZM49.0117 48.8C49.3117 48.8 49.5367 48.875 49.6867 49.025C49.8367 49.175 49.9117 49.4 49.9117 49.7V82.1C49.9117 82.4 49.8367 82.625 49.6867 82.775C49.5367 82.925 49.3117 83 49.0117 83H43.7917C43.4917 83 43.2667 82.925 43.1167 82.775C42.9667 82.625 42.8917 82.4 42.8917 82.1V49.7C42.8917 49.4 42.9667 49.175 43.1167 49.025C43.2667 48.875 43.4917 48.8 43.7917 48.8H49.0117ZM60.622 48.8C60.922 48.8 61.147 48.875 61.297 49.025C61.447 49.175 61.522 49.4 61.522 49.7V82.1C61.522 82.4 61.447 82.625 61.297 82.775C61.147 82.925 60.922 83 60.622 83H55.402C55.102 83 54.877 82.925 54.727 82.775C54.577 82.625 54.502 82.4 54.502 82.1V49.7C54.502 49.4 54.577 49.175 54.727 49.025C54.877 48.875 55.102 48.8 55.402 48.8H60.622ZM82.1774 67.025V69.95C82.1774 70.25 82.1024 70.475 81.9524 70.625C81.8024 70.775 81.5774 70.85 81.2774 70.85H72.9074V74.81C72.9074 76.37 73.0124 77.375 73.2224 77.825C73.4324 78.275 73.7924 78.5 74.3024 78.5C74.7824 78.5 75.1274 78.32 75.3374 77.96C75.5474 77.6 75.6524 76.82 75.6524 75.62V73.46C75.6524 73.16 75.7274 72.935 75.8774 72.785C76.0274 72.635 76.2524 72.56 76.5524 72.56H81.2324C81.5324 72.56 81.7574 72.635 81.9074 72.785C82.0574 72.935 82.1324 73.16 82.1324 73.46V73.64C82.1324 76.88 81.5174 79.325 80.2874 80.975C79.0574 82.595 77.0474 83.405 74.2574 83.405C71.2574 83.405 69.0974 82.49 67.7774 80.66C66.4874 78.83 65.8424 75.905 65.8424 71.885V68.555C65.8424 64.475 66.4874 61.52 67.7774 59.69C69.0974 57.86 71.2574 56.945 74.2574 56.945C77.0774 56.945 79.1024 57.785 80.3324 59.465C81.5624 61.115 82.1774 63.635 82.1774 67.025ZM74.3024 61.85C73.8224 61.85 73.4624 62.045 73.2224 62.435C73.0124 62.825 72.9074 63.695 72.9074 65.045V67.52H75.6524V65.045C75.6524 63.725 75.5474 62.87 75.3374 62.48C75.1274 62.06 74.7824 61.85 74.3024 61.85ZM92.2718 57.35C92.5718 57.35 92.7968 57.425 92.9468 57.575C93.0968 57.725 93.1718 57.95 93.1718 58.25V60.5H93.5318L97.4468 57.485C97.7468 57.245 98.0018 57.185 98.2118 57.305C98.4218 57.395 98.5268 57.635 98.5268 58.025V62.975C98.5268 63.185 98.4818 63.38 98.3918 63.56C98.3318 63.74 98.1968 63.905 97.9868 64.055L93.5318 67.475V82.1C93.5318 82.4 93.4568 82.625 93.3068 82.775C93.1568 82.925 92.9318 83 92.6318 83H87.4118C87.1118 83 86.8868 82.925 86.7368 82.775C86.5868 82.625 86.5118 82.4 86.5118 82.1V58.25C86.5118 57.95 86.5868 57.725 86.7368 57.575C86.8868 57.425 87.1118 57.35 87.4118 57.35H92.2718ZM120.416 83.45C118.766 83.45 117.326 83.21 116.096 82.73C114.866 82.22 113.846 81.38 113.036 80.21C112.226 79.04 111.626 77.465 111.236 75.485C110.846 73.505 110.651 71.045 110.651 68.105V63.695C110.651 60.725 110.846 58.25 111.236 56.27C111.656 54.29 112.271 52.715 113.081 51.545C113.891 50.375 114.911 49.55 116.141 49.07C117.371 48.59 118.796 48.35 120.416 48.35C123.446 48.35 125.711 49.25 127.211 51.05C128.741 52.82 129.506 55.94 129.506 60.41V61.85C129.506 62.15 129.431 62.375 129.281 62.525C129.131 62.675 128.906 62.75 128.606 62.75H123.161C122.861 62.75 122.636 62.675 122.486 62.525C122.336 62.375 122.261 62.15 122.261 61.85V59.645C122.261 58.505 122.231 57.59 122.171 56.9C122.111 56.18 122.006 55.64 121.856 55.28C121.736 54.89 121.556 54.635 121.316 54.515C121.076 54.395 120.761 54.335 120.371 54.335C119.981 54.335 119.651 54.395 119.381 54.515C119.141 54.635 118.946 54.89 118.796 55.28C118.676 55.64 118.586 56.18 118.526 56.9C118.496 57.59 118.481 58.505 118.481 59.645V72.2C118.481 74.42 118.601 75.845 118.841 76.475C119.111 77.105 119.621 77.42 120.371 77.42C121.121 77.42 121.616 77.105 121.856 76.475C122.126 75.845 122.261 74.42 122.261 72.2V69.365C122.261 69.065 122.336 68.84 122.486 68.69C122.636 68.54 122.861 68.465 123.161 68.465H128.606C128.906 68.465 129.131 68.54 129.281 68.69C129.431 68.84 129.506 69.065 129.506 69.365V70.895C129.506 75.455 128.771 78.695 127.301 80.615C125.831 82.505 123.536 83.45 120.416 83.45ZM149.976 67.025V69.95C149.976 70.25 149.901 70.475 149.751 70.625C149.601 70.775 149.376 70.85 149.076 70.85H140.706V74.81C140.706 76.37 140.811 77.375 141.021 77.825C141.231 78.275 141.591 78.5 142.101 78.5C142.581 78.5 142.926 78.32 143.136 77.96C143.346 77.6 143.451 76.82 143.451 75.62V73.46C143.451 73.16 143.526 72.935 143.676 72.785C143.826 72.635 144.051 72.56 144.351 72.56H149.031C149.331 72.56 149.556 72.635 149.706 72.785C149.856 72.935 149.931 73.16 149.931 73.46V73.64C149.931 76.88 149.316 79.325 148.086 80.975C146.856 82.595 144.846 83.405 142.056 83.405C139.056 83.405 136.896 82.49 135.576 80.66C134.286 78.83 133.641 75.905 133.641 71.885V68.555C133.641 64.475 134.286 61.52 135.576 59.69C136.896 57.86 139.056 56.945 142.056 56.945C144.876 56.945 146.901 57.785 148.131 59.465C149.361 61.115 149.976 63.635 149.976 67.025ZM142.101 61.85C141.621 61.85 141.261 62.045 141.021 62.435C140.811 62.825 140.706 63.695 140.706 65.045V67.52H143.451V65.045C143.451 63.725 143.346 62.87 143.136 62.48C142.926 62.06 142.581 61.85 142.101 61.85ZM164.841 83C164.541 83 164.316 82.925 164.166 82.775C164.016 82.625 163.941 82.4 163.941 82.1V63.695C163.941 63.125 163.836 62.72 163.626 62.48C163.446 62.21 163.161 62.075 162.771 62.075C162.291 62.075 161.931 62.285 161.691 62.705C161.451 63.125 161.331 63.755 161.331 64.595V82.1C161.331 82.4 161.256 82.625 161.106 82.775C160.956 82.925 160.731 83 160.431 83H155.211C154.911 83 154.686 82.925 154.536 82.775C154.386 82.625 154.311 82.4 154.311 82.1V58.25C154.311 57.95 154.386 57.725 154.536 57.575C154.686 57.425 154.911 57.35 155.211 57.35H160.071C160.371 57.35 160.596 57.425 160.746 57.575C160.896 57.725 160.971 57.95 160.971 58.25V60.5H161.511C161.781 59.33 162.261 58.46 162.951 57.89C163.641 57.29 164.631 56.99 165.921 56.99C167.451 56.99 168.666 57.515 169.566 58.565C170.496 59.615 170.961 61.265 170.961 63.515V82.1C170.961 82.4 170.886 82.625 170.736 82.775C170.586 82.925 170.361 83 170.061 83H164.841ZM186.574 77.735C186.874 77.735 187.099 77.81 187.249 77.96C187.399 78.11 187.474 78.335 187.474 78.635V82.1C187.474 82.4 187.399 82.625 187.249 82.775C187.099 82.925 186.874 83 186.574 83H182.569C180.649 83 179.209 82.475 178.249 81.425C177.289 80.345 176.809 78.875 176.809 77.015V62.615H175.369C175.069 62.615 174.844 62.54 174.694 62.39C174.544 62.24 174.469 62.015 174.469 61.715V58.25C174.469 57.95 174.544 57.725 174.694 57.575C174.844 57.425 175.069 57.35 175.369 57.35H176.899V54.695C176.899 54.455 176.944 54.245 177.034 54.065C177.154 53.885 177.319 53.735 177.529 53.615L182.749 50.735C183.049 50.585 183.304 50.57 183.514 50.69C183.724 50.81 183.829 51.035 183.829 51.365V57.35H186.574C186.874 57.35 187.099 57.425 187.249 57.575C187.399 57.725 187.474 57.95 187.474 58.25V61.715C187.474 62.015 187.399 62.24 187.249 62.39C187.099 62.54 186.874 62.615 186.574 62.615H183.829V76.565C183.829 76.955 183.919 77.255 184.099 77.465C184.279 77.645 184.594 77.735 185.044 77.735H186.574ZM206.692 67.025V69.95C206.692 70.25 206.617 70.475 206.467 70.625C206.317 70.775 206.092 70.85 205.792 70.85H197.422V74.81C197.422 76.37 197.527 77.375 197.737 77.825C197.947 78.275 198.307 78.5 198.817 78.5C199.297 78.5 199.642 78.32 199.852 77.96C200.062 77.6 200.167 76.82 200.167 75.62V73.46C200.167 73.16 200.242 72.935 200.392 72.785C200.542 72.635 200.767 72.56 201.067 72.56H205.747C206.047 72.56 206.272 72.635 206.422 72.785C206.572 72.935 206.647 73.16 206.647 73.46V73.64C206.647 76.88 206.032 79.325 204.802 80.975C203.572 82.595 201.562 83.405 198.772 83.405C195.772 83.405 193.612 82.49 192.292 80.66C191.002 78.83 190.357 75.905 190.357 71.885V68.555C190.357 64.475 191.002 61.52 192.292 59.69C193.612 57.86 195.772 56.945 198.772 56.945C201.592 56.945 203.617 57.785 204.847 59.465C206.077 61.115 206.692 63.635 206.692 67.025ZM198.817 61.85C198.337 61.85 197.977 62.045 197.737 62.435C197.527 62.825 197.422 63.695 197.422 65.045V67.52H200.167V65.045C200.167 63.725 200.062 62.87 199.852 62.48C199.642 62.06 199.297 61.85 198.817 61.85ZM216.786 57.35C217.086 57.35 217.311 57.425 217.461 57.575C217.611 57.725 217.686 57.95 217.686 58.25V60.5H218.046L221.961 57.485C222.261 57.245 222.516 57.185 222.726 57.305C222.936 57.395 223.041 57.635 223.041 58.025V62.975C223.041 63.185 222.996 63.38 222.906 63.56C222.846 63.74 222.711 63.905 222.501 64.055L218.046 67.475V82.1C218.046 82.4 217.971 82.625 217.821 82.775C217.671 82.925 217.446 83 217.146 83H211.926C211.626 83 211.401 82.925 211.251 82.775C211.101 82.625 211.026 82.4 211.026 82.1V58.25C211.026 57.95 211.101 57.725 211.251 57.575C211.401 57.425 211.626 57.35 211.926 57.35H216.786Z" fill="#F85606"/>
</svg>
