<svg width="24" height="28" xmlns="http://www.w3.org/2000/svg"><g fill="none"><path d="M16.8 23.333C16.8 25.911 14.651 28 12 28c-2.65 0-4.8-2.09-4.8-4.667s2.15-4.666 4.8-4.666c2.651 0 4.8 2.089 4.8 4.666z" fill="#FECF00"/><path d="M12 0c.662 0 1.2.523 1.2 1.167l.001 1.25c4.064.568 7.199 3.976 7.199 8.083v3.253c0 2.308 1.04 4.487 2.855 5.978.477.397.745.963.745 1.56 0 1.127-.942 2.042-2.1 2.042H2.1c-1.158 0-2.1-.915-2.1-2.041 0-.598.268-1.164.735-1.55C2.56 18.24 3.6 16.061 3.6 13.751V10.5c0-4.107 3.135-7.515 7.199-8.083l.001-1.25C10.8.523 11.338 0 12 0z" fill="#F80"/><path d="M12 18.667c2.651 0 4.8 2.089 4.8 4.666H7.2c0-2.577 2.15-4.666 4.8-4.666z" fill="#FE5800"/></g></svg>